<svg width="31" height="29" viewBox="0 0 31 29" fill="none" xmlns="http://www.w3.org/2000/svg">
<path d="M7.75 2.41669L3.875 7.25002V24.1667C3.875 24.8076 4.14717 25.4223 4.63164 25.8755C5.11611 26.3287 5.77319 26.5834 6.45833 26.5834H24.5417C25.2268 26.5834 25.8839 26.3287 26.3684 25.8755C26.8528 25.4223 27.125 24.8076 27.125 24.1667V7.25002L23.25 2.41669H7.75Z" fill="#F8E8EE" stroke="black" stroke-width="2" stroke-linecap="round" stroke-linejoin="round"/>
<path d="M3.875 7.25H27.125" stroke="black" stroke-width="2" stroke-linecap="round" stroke-linejoin="round"/>
<path d="M20.6666 12.0833C20.6666 13.3652 20.1222 14.5946 19.1533 15.501C18.1844 16.4074 16.8702 16.9166 15.4999 16.9166C14.1296 16.9166 12.8155 16.4074 11.8465 15.501C10.8776 14.5946 10.3333 13.3652 10.3333 12.0833" fill="#F8E8EE"/>
<path d="M20.6666 12.0833C20.6666 13.3652 20.1222 14.5946 19.1533 15.501C18.1844 16.4074 16.8702 16.9166 15.4999 16.9166C14.1296 16.9166 12.8155 16.4074 11.8465 15.501C10.8776 14.5946 10.3333 13.3652 10.3333 12.0833" stroke="black" stroke-width="2" stroke-linecap="round" stroke-linejoin="round"/>
</svg>
