<svg width="28" height="29" viewBox="0 0 28 29" fill="none" xmlns="http://www.w3.org/2000/svg">
<path d="M23.1494 4.12177C22.5629 3.44911 21.8667 2.9155 21.1003 2.55144C20.334 2.18738 19.5126 2 18.6831 2C17.8535 2 17.0321 2.18738 16.2658 2.55144C15.4994 2.9155 14.8032 3.44911 14.2167 4.12177L12.9997 5.51714L11.7826 4.12177C10.5981 2.76368 8.99153 2.0007 7.31633 2.0007C5.64114 2.0007 4.03455 2.76368 2.85001 4.12177C1.66547 5.47987 1 7.32185 1 9.24249C1 11.1631 1.66547 13.0051 2.85001 14.3632L4.06705 15.7586L12.9997 26L21.9323 15.7586L23.1494 14.3632C23.7361 13.6909 24.2015 12.8926 24.519 12.0139C24.8366 11.1353 25 10.1936 25 9.24249C25 8.29142 24.8366 7.34967 24.519 6.47104C24.2015 5.59241 23.7361 4.79412 23.1494 4.12177Z" fill="#F8E8EE" stroke="black" stroke-width="2" stroke-linecap="round" stroke-linejoin="round"/>
</svg>
