<svg width="32" height="31" viewBox="0 0 32 31" fill="none" xmlns="http://www.w3.org/2000/svg">
<path d="M22.3526 2.58325H9.62224C6.10686 2.58325 3.25708 5.47475 3.25708 9.04159V21.9583C3.25708 25.5251 6.10686 28.4166 9.62224 28.4166H22.3526C25.8679 28.4166 28.7177 25.5251 28.7177 21.9583V9.04159C28.7177 5.47475 25.8679 2.58325 22.3526 2.58325Z" stroke="#F8E8EE" stroke-width="2" stroke-linecap="round" stroke-linejoin="round"/>
<path d="M21.0794 14.6862C21.2365 15.7611 21.0555 16.859 20.5622 17.8236C20.0689 18.7882 19.2884 19.5705 18.3317 20.0591C17.375 20.5476 16.2908 20.7177 15.2333 20.5451C14.1759 20.3724 13.199 19.8658 12.4417 19.0974C11.6843 18.329 11.185 17.3378 11.0149 16.2648C10.8447 15.1919 11.0123 14.0918 11.4939 13.1211C11.9754 12.1504 12.7463 11.3585 13.697 10.858C14.6477 10.3574 15.7298 10.1738 16.7893 10.3332C17.87 10.4958 18.8705 11.0068 19.643 11.7906C20.4155 12.5745 20.9191 13.5896 21.0794 14.6862Z" stroke="#F8E8EE" stroke-width="2" stroke-linecap="round" stroke-linejoin="round"/>
<path d="M22.989 8.39575H23.0017" stroke="#F8E8EE" stroke-width="2" stroke-linecap="round" stroke-linejoin="round"/>
</svg>
