<svg width="32" height="31" viewBox="0 0 32 31" fill="none" xmlns="http://www.w3.org/2000/svg">
<g clip-path="url(#clip0_248_133)">
<path d="M30.1102 3.87505C28.8912 4.74754 27.5414 5.41486 26.1129 5.8513C25.3462 4.95683 24.3273 4.32286 23.1939 4.03512C22.0605 3.74738 20.8674 3.81976 19.7759 4.24247C18.6843 4.66518 17.7471 5.41782 17.0909 6.3986C16.4347 7.37938 16.0912 8.54098 16.1069 9.7263V11.018C13.8697 11.0768 11.6529 10.5734 9.65388 9.5525C7.65488 8.53161 5.93575 7.02495 4.64958 5.16672C4.64958 5.16672 -0.442549 16.7917 11.0147 21.9584C8.39297 23.7641 5.26975 24.6695 2.10352 24.5417C13.5608 31 27.5642 24.5417 27.5642 9.68755C27.563 9.32776 27.5289 8.96886 27.4623 8.61547C28.7616 7.31539 29.6784 5.67397 30.1102 3.87505Z" fill="#F8E8EE" stroke="#F8E8EE" stroke-width="2" stroke-linecap="round" stroke-linejoin="round"/>
</g>
<defs>
<clipPath id="clip0_248_133">
<rect width="30.5528" height="31" fill="white" transform="translate(0.830566)"/>
</clipPath>
</defs>
</svg>
